<svg width="18" height="17" viewBox="0 0 18 17" fill="none" xmlns="http://www.w3.org/2000/svg">
<path d="M16.978 5.1875C16.753 5.05312 16.5093 5.29687 16.5093 5.65V8.05937C16.5093 8.40937 16.753 8.65312 16.978 8.52187C17.4374 8.26562 17.7499 7.62187 17.7499 6.86875C17.7499 6.11562 17.4374 5.47187 16.978 5.1875Z" fill="white"/>
<path d="M1.73125 9.38125C1.94433 9.42184 2.14014 9.52595 2.29296 9.67988C2.44578 9.83382 2.54845 10.0304 2.5875 10.2437L3.9 15.7687C3.92826 15.9385 4.01972 16.0913 4.15601 16.1964C4.29229 16.3015 4.4633 16.3511 4.63467 16.3352C4.80603 16.3194 4.96506 16.2393 5.07979 16.111C5.19451 15.9828 5.25644 15.8158 5.25313 15.6437V4.25C5.2509 4.20005 5.23761 4.15122 5.21421 4.10703C5.19081 4.06284 5.15788 4.02441 5.11781 3.99451C5.07774 3.9646 5.03153 3.94398 4.98251 3.93412C4.93349 3.92426 4.88289 3.92541 4.83437 3.9375L1.89688 4.67187C1.4327 4.79017 1.02019 5.05756 0.722684 5.43297C0.425174 5.80839 0.259113 6.27108 0.25 6.75V7.6875C0.250316 8.0784 0.38683 8.45697 0.636066 8.7581C0.885301 9.05924 1.23168 9.26411 1.61562 9.3375L1.73125 9.38125Z" fill="white"/>
<path d="M7.16571 11.75C7.41961 11.6494 7.64725 11.4923 7.83133 11.2906C8.02716 11.0828 8.27782 10.9346 8.55433 10.8633C8.83084 10.7919 9.1219 10.8003 9.39383 10.8875L13.6157 12.1656C13.7245 12.1964 13.8206 12.2612 13.8898 12.3507C13.959 12.4401 13.9977 12.5494 14.0001 12.6625C13.998 12.731 14.0094 12.7993 14.0338 12.8634C14.0581 12.9275 14.0948 12.9862 14.1418 13.0362C14.1888 13.0861 14.2452 13.1262 14.3078 13.1544C14.3703 13.1825 14.4378 13.198 14.5063 13.2H14.7251C14.8619 13.1992 14.9932 13.1454 15.0911 13.0498C15.189 12.9542 15.246 12.8243 15.2501 12.6875V1.21875C15.2501 1.07868 15.1944 0.944348 15.0954 0.845305C14.9964 0.746262 14.862 0.69062 14.722 0.69062H14.5032C14.4347 0.693039 14.3673 0.708946 14.3049 0.737433C14.2425 0.76592 14.1863 0.806426 14.1396 0.856637C14.0928 0.906848 14.0565 0.965778 14.0325 1.03006C14.0086 1.09433 13.9976 1.1627 14.0001 1.23125C13.9974 1.34689 13.9568 1.45845 13.8845 1.54878C13.8122 1.63911 13.7123 1.70321 13.6001 1.73125L6.90321 3.71875C6.78835 3.74673 6.6862 3.81244 6.61311 3.90535C6.54002 3.99827 6.50022 4.11303 6.50008 4.23125V11.2781C6.49861 11.3585 6.5168 11.4381 6.55307 11.5098C6.58934 11.5816 6.64259 11.6434 6.7082 11.69C6.7738 11.7365 6.84977 11.7662 6.92951 11.7767C7.00924 11.7872 7.09032 11.778 7.16571 11.75Z" fill="white"/>
</svg>
