<svg width="18" height="18" viewBox="0 0 18 18" fill="none" xmlns="http://www.w3.org/2000/svg">
<path d="M17.1775 16.8683H14.8834C14.5777 16.8681 14.2823 16.7571 14.0521 16.5559C13.8219 16.3547 13.6724 16.0769 13.6313 15.7739L12.444 6.93145C12.4101 6.76242 12.3164 6.61127 12.1802 6.50566C12.0439 6.40006 11.8742 6.34706 11.702 6.35638H5.95753C5.7859 6.34783 5.6169 6.40117 5.48129 6.50671C5.34567 6.61225 5.25246 6.76297 5.2186 6.93145L4.03136 15.7739C3.99017 16.0774 3.84022 16.3556 3.60935 16.5569C3.37849 16.7582 3.08241 16.8689 2.77611 16.8683H0.482027C0.400029 16.8683 0.321389 16.9009 0.263407 16.9589C0.205425 17.0169 0.172852 17.0955 0.172852 17.1775C0.172852 17.2595 0.205425 17.3382 0.263407 17.3961C0.321389 17.4541 0.400029 17.4867 0.482027 17.4867H17.1775C17.2595 17.4867 17.3381 17.4541 17.3961 17.3961C17.4541 17.3382 17.4867 17.2595 17.4867 17.1775C17.4867 17.0955 17.4541 17.0169 17.3961 16.9589C17.3381 16.9009 17.2595 16.8683 17.1775 16.8683ZM10.0665 13.4303C10.0681 13.4752 10.0607 13.5199 10.0447 13.5619C10.0287 13.6038 10.0043 13.6421 9.97315 13.6745C9.94198 13.7068 9.9046 13.7325 9.86326 13.75C9.82192 13.7676 9.77747 13.7766 9.73256 13.7766H7.92697C7.88206 13.7766 7.83761 13.7676 7.79627 13.75C7.75493 13.7325 7.71756 13.7068 7.68638 13.6745C7.65521 13.6421 7.63088 13.6038 7.61484 13.5619C7.59881 13.5199 7.5914 13.4752 7.59306 13.4303V11.3032C7.59306 10.9752 7.72336 10.6606 7.95529 10.4287C8.18721 10.1968 8.50177 10.0665 8.82977 10.0665C9.15776 10.0665 9.47232 10.1968 9.70425 10.4287C9.93617 10.6606 10.0665 10.9752 10.0665 11.3032V13.4303Z" fill="white"/>
<path d="M3.88289 4.06231C3.88125 4.20058 3.90707 4.3378 3.95885 4.46602C4.01064 4.59424 4.08735 4.7109 4.18456 4.80925C4.28176 4.90761 4.39751 4.98569 4.52511 5.03898C4.65271 5.09227 4.78962 5.1197 4.9279 5.11969H12.7315C12.8698 5.1197 13.0067 5.09227 13.1343 5.03898C13.2619 4.98569 13.3776 4.90761 13.4748 4.80925C13.572 4.7109 13.6487 4.59424 13.7005 4.46602C13.7523 4.3378 13.7781 4.20058 13.7765 4.06231V1.10041C13.7765 0.854413 13.6788 0.618493 13.5048 0.444548C13.3309 0.270603 13.095 0.172882 12.849 0.172882C12.603 0.172882 12.3671 0.270603 12.1931 0.444548C12.0192 0.618493 11.9214 0.854413 11.9214 1.10041V1.40958C11.9214 1.57358 11.8563 1.73086 11.7403 1.84682C11.6244 1.96279 11.4671 2.02794 11.3031 2.02794C11.1391 2.02794 10.9818 1.96279 10.8659 1.84682C10.7499 1.73086 10.6847 1.57358 10.6847 1.40958V0.791233C10.6847 0.627236 10.6196 0.469956 10.5036 0.353993C10.3877 0.23803 10.2304 0.172882 10.0664 0.172882C9.9024 0.172882 9.74512 0.23803 9.62916 0.353993C9.51319 0.469956 9.44804 0.627236 9.44804 0.791233V1.40958C9.44804 1.57358 9.3829 1.73086 9.26693 1.84682C9.15097 1.96279 8.99369 2.02794 8.82969 2.02794C8.6657 2.02794 8.50842 1.96279 8.39245 1.84682C8.27649 1.73086 8.21134 1.57358 8.21134 1.40958V0.791233C8.21134 0.627236 8.1462 0.469956 8.03023 0.353993C7.91427 0.23803 7.75699 0.172882 7.59299 0.172882C7.42899 0.172882 7.27172 0.23803 7.15575 0.353993C7.03979 0.469956 6.97464 0.627236 6.97464 0.791233V1.40958C6.97464 1.57358 6.90949 1.73086 6.79353 1.84682C6.67757 1.96279 6.52029 2.02794 6.35629 2.02794C6.19229 2.02794 6.03501 1.96279 5.91905 1.84682C5.80309 1.73086 5.73794 1.57358 5.73794 1.40958V1.10041C5.73794 0.854413 5.64022 0.618493 5.46627 0.444548C5.29233 0.270603 5.05641 0.172882 4.81041 0.172882C4.56442 0.172882 4.3285 0.270603 4.15455 0.444548C3.98061 0.618493 3.88289 0.854413 3.88289 1.10041V4.06231Z" fill="white"/>
</svg>
